<?xml version="1.0" encoding="UTF-8" standalone="no"?>
<!-- Created with Inkscape (http://www.inkscape.org/) -->

<svg
   xmlns:dc="http://purl.org/dc/elements/1.1/"
   xmlns:cc="http://creativecommons.org/ns#"
   xmlns:rdf="http://www.w3.org/1999/02/22-rdf-syntax-ns#"
   xmlns:svg="http://www.w3.org/2000/svg"
   xmlns="http://www.w3.org/2000/svg"
   xmlns:sodipodi="http://sodipodi.sourceforge.net/DTD/sodipodi-0.dtd"
   xmlns:inkscape="http://www.inkscape.org/namespaces/inkscape"
   width="210mm"
   height="297mm"
   id="svg2"
   version="1.1"
   inkscape:version="0.48.1 r9760"
   enable-background="new"
   sodipodi:docname="logos.svg">
  <defs
     id="defs4">
    <filter
       inkscape:collect="always"
       id="filter3844">
      <feBlend
         inkscape:collect="always"
         mode="lighten"
         in2="BackgroundImage"
         id="feBlend3846" />
    </filter>
  </defs>
  <sodipodi:namedview
     id="base"
     pagecolor="#ffffff"
     bordercolor="#666666"
     borderopacity="1.0"
     inkscape:pageopacity="0.0"
     inkscape:pageshadow="2"
     inkscape:zoom="1.4"
     inkscape:cx="401.20968"
     inkscape:cy="760.41595"
     inkscape:document-units="px"
     inkscape:current-layer="g2997"
     showgrid="false"
     inkscape:window-width="1920"
     inkscape:window-height="1088"
     inkscape:window-x="0"
     inkscape:window-y="0"
     inkscape:window-maximized="0">
    <inkscape:grid
       type="xygrid"
       id="grid3830" />
  </sodipodi:namedview>
  <metadata
     id="metadata7">
    <rdf:RDF>
      <cc:Work
         rdf:about="">
        <dc:format>image/svg+xml</dc:format>
        <dc:type
           rdf:resource="http://purl.org/dc/dcmitype/StillImage" />
        <dc:title></dc:title>
      </cc:Work>
    </rdf:RDF>
  </metadata>
  <g
     inkscape:label="Calque 1"
     inkscape:groupmode="layer"
     id="layer1">
    <g
       id="g2997"
       style="filter:url(#filter3844)">
      <path
         style="fill:#2873a3;fill-opacity:0.10196078;stroke:#2873a3;stroke-width:1.14417827;stroke-opacity:0.5098038"
         d="m 133.75405,58.54669 c 4.61391,10.92187 4.78587,23.23471 3.05043,34.81115 -1.7841,10.56237 -5.94694,21.89506 -15.50193,27.77999 -7.7311,4.86098 -18.40696,3.16429 -24.7324,-3.25278 -9.39747,-9.10412 -12.28693,-22.75105 -12.38757,-35.3857 -0.13328,-11.26307 2.702,-22.4331 7.86299,-32.42553 4.66302,-9.628263 11.49764,-18.102483 19.56353,-25.093933 10.13077,9.00031 18.18741,20.537263 22.14495,33.566803 z"
         id="path2993"
         inkscape:connector-curvature="0"
         clip-path="none" />
      <path
         clip-path="none"
         inkscape:connector-curvature="0"
         id="path3036"
         d="m 39.87687,146.04889 c 7.15166,-9.4567 17.72892,-15.76204 28.62213,-20.04732 10.03933,-3.73611 21.93515,-5.79733 31.80914,-0.46493 8.07528,4.26483 11.94384,14.35875 9.54921,23.04527 -3.18566,12.69051 -13.55952,22.01632 -24.45113,28.4208 -9.68747,5.74696 -20.77863,8.87655 -32.01283,9.40322 -10.66983,0.77583 -21.42603,-0.90601 -31.51374,-4.39555 2.72911,-13.27366 8.69208,-26.01939 17.99722,-35.96149 z"
         style="fill:#ff6733;fill-opacity:0.10196078;stroke:#ff6733;stroke-width:1.14417827;stroke-opacity:0.5098038" />
      <path
         style="fill:#87e52e;fill-opacity:0.10196078;stroke:#87e52e;stroke-width:1.14417827;stroke-opacity:0.5098038"
         d="m 161.51506,183.9866 c -11.76557,-1.46517 -22.51478,-7.47268 -31.67255,-14.76384 -8.25523,-6.82626 -15.98821,-16.09773 -16.30721,-27.31505 -0.34419,-9.12582 6.46312,-17.52305 15.18318,-19.7925 12.58314,-3.58639 25.84646,0.73473 36.8387,6.9649 9.82075,5.51612 18.07664,13.55655 24.14985,23.02232 6.0068,8.85243 9.92838,19.00849 11.95021,29.48947 -12.85988,4.27335 -26.87949,5.48213 -40.14218,2.3947 z"
         id="path3038"
         inkscape:connector-curvature="0"
         clip-path="none" />
      <path
         sodipodi:type="arc"
         style="fill:#ff6733;fill-opacity:0.5098038;stroke:#ff6733;stroke-opacity:0.5098038"
         id="path3044"
         sodipodi:cx="94.449265"
         sodipodi:cy="190.19699"
         sodipodi:rx="18.182745"
         sodipodi:ry="16.162441"
         d="M 95.365144,206.33892 A 18.182745,16.162441 0 1 1 94.636051,174.0354 l -0.186786,16.16159 z"
         sodipodi:start="1.5204042"
         sodipodi:end="4.7226619"
         transform="matrix(-0.84694939,0.53167352,-0.53167352,-0.84694939,267.8621,256.58666)" />
      <path
         transform="matrix(0.00889378,-0.99996045,0.99996045,0.00889378,-79.878329,192.69185)"
         sodipodi:end="4.7226619"
         sodipodi:start="1.5204042"
         d="M 95.365144,206.33892 A 18.182745,16.162441 0 1 1 94.636051,174.0354 l -0.186786,16.16159 z"
         sodipodi:ry="16.162441"
         sodipodi:rx="18.182745"
         sodipodi:cy="190.19699"
         sodipodi:cx="94.449265"
         id="path3046"
         style="fill:#2873a3;fill-opacity:0.5098038;stroke:#2873a3;stroke-opacity:0.5098038"
         sodipodi:type="arc" />
      <path
         sodipodi:type="arc"
         style="fill:#87e52e;fill-opacity:0.5098038;stroke:#87e52e;stroke-opacity:0.5098038"
         id="path3048"
         sodipodi:cx="94.449265"
         sodipodi:cy="190.19699"
         sodipodi:rx="18.182745"
         sodipodi:ry="16.162441"
         d="M 95.365144,206.33892 A 18.182745,16.162441 0 1 1 94.636051,174.0354 l -0.186786,16.16159 z"
         sodipodi:start="1.5204042"
         sodipodi:end="4.7226619"
         transform="matrix(0.73474858,0.67833954,-0.67833954,0.73474858,198.67022,-58.834083)" />
      <path
         clip-path="none"
         inkscape:connector-curvature="0"
         id="path3818"
         d="m 373.75406,95.255025 c 4.61391,10.921875 4.78587,23.234715 3.05043,34.811155 -1.7841,10.56237 -5.94694,21.89506 -15.50193,27.77999 -7.7311,4.86098 -18.40696,3.16429 -24.7324,-3.25278 -9.39747,-9.10412 -12.28693,-22.75105 -12.38757,-35.3857 -0.13328,-11.26307 2.702,-22.433105 7.86299,-32.425535 4.66302,-9.62826 11.49764,-18.10248 19.56353,-25.09393 10.13077,9.00031 18.18741,20.53726 22.14495,33.5668 z"
         style="fill:#2873a3;fill-opacity:0.10196078;stroke:#8f9557;stroke-width:1.14417827;stroke-opacity:0.5098038" />
      <path
         style="fill:#ff6733;fill-opacity:0.10196078;stroke:#8f9557;stroke-width:1.14417827;stroke-opacity:0.5098038"
         d="m 313.75211,95.188425 c 4.64637,10.908105 4.85494,23.220385 3.15392,34.801925 -1.75268,10.56763 -5.8818,21.91265 -15.41925,27.82597 -7.71661,4.88394 -18.39747,3.21901 -24.74196,-3.17923 -9.4245,-9.07613 -12.35453,-22.71441 -12.49273,-35.3487 -0.16677,-11.26263 2.63528,-22.441045 7.76653,-32.448785 4.63438,-9.64208 11.44377,-18.13659 19.48883,-25.15198 10.15749,8.97014 18.2484,20.48308 22.24466,33.5008 z"
         id="path3820"
         inkscape:connector-curvature="0"
         clip-path="none" />
      <path
         clip-path="none"
         inkscape:connector-curvature="0"
         id="path3822"
         d="m 435.45759,95.707855 c 4.39714,11.010935 4.3257,23.324775 2.36178,34.864655 -1.99251,10.52504 -6.37853,21.77324 -16.04796,27.46816 -7.82566,4.70723 -18.46591,2.79987 -24.66328,-3.74097 -9.21569,-9.28808 -11.83486,-22.98946 -11.68575,-35.62362 0.0894,-11.26352 3.14486,-22.375325 8.50234,-32.263805 4.85242,-9.53421 11.85319,-17.87169 20.05568,-24.70235 9.9509,9.19878 17.77794,20.89272 21.47719,33.99793 z"
         style="fill:#87e52e;fill-opacity:0.10196078;stroke:#8f9557;stroke-width:1.14417827;stroke-opacity:0.5098038"
         inkscape:transform-center-x="27.415464"
         inkscape:transform-center-y="74.285714" />
      <path
         transform="matrix(0.06760951,-0.99771186,0.99771186,0.06760951,95.968874,219.9224)"
         sodipodi:end="4.7226619"
         sodipodi:start="1.5204042"
         d="M 95.365144,206.33892 A 18.182745,16.162441 0 1 1 94.636051,174.0354 l -0.186786,16.16159 z"
         sodipodi:ry="16.162441"
         sodipodi:rx="18.182745"
         sodipodi:cy="190.19699"
         sodipodi:cx="94.449265"
         id="path3824"
         style="fill:#ff6733;fill-opacity:0.5098038;stroke:#8f9557;stroke-opacity:0.5098038"
         sodipodi:type="arc"
         inkscape:transform-center-x="-41.428571"
         inkscape:transform-center-y="40" />
      <path
         sodipodi:type="arc"
         style="fill:#2873a3;fill-opacity:0.5098038;stroke:#8f9557;stroke-opacity:0.5098038"
         id="path3826"
         sodipodi:cx="94.449265"
         sodipodi:cy="190.19699"
         sodipodi:rx="18.182745"
         sodipodi:ry="16.162441"
         d="M 95.365144,206.33892 A 18.182745,16.162441 0 1 1 94.636051,174.0354 l -0.186786,16.16159 z"
         sodipodi:start="1.5204042"
         sodipodi:end="4.7226619"
         transform="matrix(0.00889378,-0.99996045,0.99996045,0.00889378,160.12168,231.29347)" />
      <path
         transform="matrix(0.01829561,-0.99983263,0.99983263,0.01829561,219.67708,229.49379)"
         sodipodi:end="4.7226619"
         sodipodi:start="1.5204042"
         d="M 95.365144,206.33892 A 18.182745,16.162441 0 1 1 94.636051,174.0354 l -0.186786,16.16159 z"
         sodipodi:ry="16.162441"
         sodipodi:rx="18.182745"
         sodipodi:cy="190.19699"
         sodipodi:cx="94.449265"
         id="path3828"
         style="fill:#87e52e;fill-opacity:0.5098038;stroke:#8f9557;stroke-opacity:0.5098038"
         sodipodi:type="arc" />
      <path
         clip-path="none"
         inkscape:connector-curvature="0"
         id="path3848"
         d="m 625.18263,67.118116 c 4.61391,10.92187 4.78587,23.23471 3.05043,34.811154 -1.7841,10.56237 -5.94694,21.89506 -15.50193,27.77999 -7.7311,4.86098 -18.40696,3.16429 -24.7324,-3.25278 -9.39747,-9.10412 -12.28693,-22.75105 -12.38757,-35.385704 -0.13328,-11.26307 2.702,-22.4331 7.86299,-32.42553 4.66302,-9.62826 11.49764,-18.10248 19.56353,-25.09393 10.13077,9.00031 18.18741,20.53726 22.14495,33.5668 z"
         style="fill:#2873a3;fill-opacity:0.10196078;stroke:#2873a3;stroke-width:1.14417827;stroke-opacity:0.5098038"
         inkscape:export-filename="/Users/daviddumon/path3858.png"
         inkscape:export-xdpi="55.226181"
         inkscape:export-ydpi="55.226181" />
      <path
         style="fill:#ff6733;fill-opacity:0.10196078;stroke:#ff6733;stroke-width:1.14417827;stroke-opacity:0.5098038"
         d="m 531.30545,154.62032 c 7.15166,-9.4567 17.72892,-15.76204 28.62213,-20.04732 10.03933,-3.73611 21.93515,-5.79733 31.80914,-0.46493 8.07528,4.26483 11.94384,14.35875 9.54921,23.04527 -3.18566,12.69051 -13.55952,22.01632 -24.45113,28.4208 -9.68747,5.74696 -20.77863,8.87655 -32.01283,9.40322 -10.66983,0.77583 -21.42603,-0.90601 -31.51374,-4.39555 2.72911,-13.27366 8.69208,-26.01939 17.99722,-35.96149 z"
         id="path3850"
         inkscape:connector-curvature="0"
         clip-path="none"
         inkscape:export-filename="/Users/daviddumon/path3858.png"
         inkscape:export-xdpi="55.226181"
         inkscape:export-ydpi="55.226181" />
      <path
         clip-path="none"
         inkscape:connector-curvature="0"
         id="path3852"
         d="m 652.94364,192.55803 c -11.76557,-1.46517 -22.51478,-7.47268 -31.67255,-14.76384 -8.25523,-6.82626 -15.98821,-16.09773 -16.30721,-27.31505 -0.34419,-9.12582 6.46312,-17.52305 15.18318,-19.7925 12.58314,-3.58639 25.84646,0.73473 36.8387,6.9649 9.82075,5.51612 18.07664,13.55655 24.14985,23.02232 6.0068,8.85243 9.92838,19.00849 11.95021,29.48947 -12.85988,4.27335 -26.87949,5.48213 -40.14218,2.3947 z"
         style="fill:#87e52e;fill-opacity:0.10196078;stroke:#87e52e;stroke-width:1.14417827;stroke-opacity:0.5098038"
         inkscape:export-filename="/Users/daviddumon/path3858.png"
         inkscape:export-xdpi="55.226181"
         inkscape:export-ydpi="55.226181" />
      <path
         transform="matrix(0.82854541,-0.55992188,0.55992188,0.82854541,396.65037,47.902656)"
         sodipodi:end="4.7226619"
         sodipodi:start="1.5204042"
         d="M 95.365144,206.33892 A 18.182745,16.162441 0 1 1 94.636051,174.0354 l -0.186786,16.16159 z"
         sodipodi:ry="16.162441"
         sodipodi:rx="18.182745"
         sodipodi:cy="190.19699"
         sodipodi:cx="94.449265"
         id="path3854"
         style="fill:#ff6733;fill-opacity:0.5098038;stroke:#ff6733;stroke-opacity:0.5098038"
         sodipodi:type="arc"
         inkscape:export-filename="/Users/daviddumon/path3858.png"
         inkscape:export-xdpi="55.226181"
         inkscape:export-ydpi="55.226181" />
      <path
         sodipodi:type="arc"
         style="fill:#2873a3;fill-opacity:0.5098038;stroke:#2873a3;stroke-opacity:0.5098038"
         id="path3856"
         sodipodi:cx="94.449265"
         sodipodi:cy="190.19699"
         sodipodi:rx="18.182745"
         sodipodi:ry="16.162441"
         d="M 95.365144,206.33892 A 18.182745,16.162441 0 1 1 94.636051,174.0354 l -0.186786,16.16159 z"
         sodipodi:start="1.5204042"
         sodipodi:end="4.7226619"
         transform="matrix(-0.01937658,0.99981226,-0.99981226,-0.01937658,795.19454,18.030296)"
         inkscape:export-filename="/Users/daviddumon/path3858.png"
         inkscape:export-xdpi="55.226181"
         inkscape:export-ydpi="55.226181" />
      <path
         transform="matrix(-0.79542722,-0.60604912,0.60604912,-0.79542722,588.23338,359.88618)"
         sodipodi:end="4.7226619"
         sodipodi:start="1.5204042"
         d="M 95.365144,206.33892 A 18.182745,16.162441 0 1 1 94.636051,174.0354 l -0.186786,16.16159 z"
         sodipodi:ry="16.162441"
         sodipodi:rx="18.182745"
         sodipodi:cy="190.19699"
         sodipodi:cx="94.449265"
         id="path3858"
         style="fill:#87e52e;fill-opacity:0.5098038;stroke:#87e52e;stroke-opacity:0.5098038"
         sodipodi:type="arc"
         inkscape:transform-center-x="10"
         inkscape:transform-center-y="-8.5714286"
         inkscape:export-xdpi="55.226181"
         inkscape:export-ydpi="55.226181" />
      <path
         style="fill:#2873a3;fill-opacity:0.10196078;stroke:#2873a3;stroke-width:1.14417827;stroke-opacity:0.5098038"
         d="m 92.386101,283.9466 c -4.61391,-10.92187 -4.78587,-23.23471 -3.05043,-34.81115 1.7841,-10.56237 5.94694,-21.89506 15.501929,-27.77999 7.7311,-4.86098 18.40696,-3.16429 24.7324,3.25278 9.39747,9.10412 12.28693,22.75105 12.38757,35.3857 0.13328,11.26307 -2.702,22.4331 -7.86299,32.42553 -4.66302,9.62826 -11.49764,18.10248 -19.56353,25.09393 -10.13077,-9.00031 -18.187409,-20.53726 -22.144949,-33.5668 z"
         id="path3879"
         inkscape:connector-curvature="0"
         clip-path="none" />
      <path
         clip-path="none"
         inkscape:connector-curvature="0"
         id="path3881"
         d="m 94.70474,356.41904 c -7.15166,9.4567 -17.72892,15.76204 -28.62213,20.04732 -10.03933,3.73611 -21.93515,5.79733 -31.80914,0.46493 -8.07528,-4.26483 -11.94384,-14.35875 -9.54921,-23.04527 3.18566,-12.69051 13.55952,-22.01632 24.45113,-28.4208 9.68747,-5.74696 20.77863,-8.87655 32.01283,-9.40322 10.66983,-0.77583 21.42603,0.90601 31.51374,4.39555 -2.72911,13.27366 -8.69208,26.01939 -17.99722,35.96149 z"
         style="fill:#ff6733;fill-opacity:0.10196078;stroke:#ff6733;stroke-width:1.14417827;stroke-opacity:0.5098038" />
      <path
         style="fill:#87e52e;fill-opacity:0.10196078;stroke:#87e52e;stroke-width:1.14417827;stroke-opacity:0.5098038"
         d="m 155.80784,318.1119 c 11.76557,1.46517 22.51478,7.47268 31.67255,14.76384 8.25523,6.82626 15.98821,16.09773 16.30721,27.31505 0.34419,9.12582 -6.46312,17.52305 -15.18318,19.7925 -12.58314,3.58639 -25.84646,-0.73473 -36.8387,-6.9649 -9.82075,-5.51612 -18.07664,-13.55655 -24.14985,-23.02232 -6.0068,-8.85243 -9.92838,-19.00849 -11.95021,-29.48947 12.85988,-4.27335 26.87949,-5.48213 40.14218,-2.3947 z"
         id="path3883"
         inkscape:connector-curvature="0"
         clip-path="none" />
      <path
         inkscape:export-ydpi="55.226181"
         inkscape:export-xdpi="55.226181"
         inkscape:export-filename="/Users/daviddumon/path3858.png"
         style="fill:#2873a3;fill-opacity:0.10196078000000000;stroke:#2873a3;stroke-width:1.144;stroke-opacity:0.50980380000000003;stroke-miterlimit:4;stroke-dasharray:none"
         d="m 379.46834,251.68954 c 4.61391,10.92187 4.78587,23.23472 3.05043,34.81116 -1.7841,10.56237 -5.94694,21.89506 -15.50193,27.77999 -7.7311,4.86098 -18.40696,3.16429 -24.7324,-3.25278 -9.39747,-9.10412 -12.28693,-22.75105 -12.38757,-35.3857 -0.13328,-11.26308 2.702,-22.43311 7.86299,-32.42554 4.66302,-9.62826 11.49764,-18.10248 19.56353,-25.09393 10.13077,9.00031 18.18741,20.53726 22.14495,33.5668 z"
         id="path4047"
         inkscape:connector-curvature="0"
         clip-path="none" />
      <path
         inkscape:export-ydpi="55.226181"
         inkscape:export-xdpi="55.226181"
         inkscape:export-filename="/Users/daviddumon/path3858.png"
         clip-path="none"
         inkscape:connector-curvature="0"
         id="path4049"
         d="m 285.59116,339.19175 c 7.15166,-9.4567 17.72892,-15.76204 28.62213,-20.04732 10.03933,-3.73611 21.93515,-5.79733 31.80914,-0.46493 8.07528,4.26483 11.94384,14.35875 9.54921,23.04527 -3.18566,12.69051 -13.55952,22.01632 -24.45113,28.4208 -9.68747,5.74696 -20.77863,8.87655 -32.01283,9.40322 -10.66983,0.77583 -21.42603,-0.90601 -31.51374,-4.39555 2.72911,-13.27366 8.69208,-26.01939 17.99722,-35.96149 z"
         style="fill:#ff6733;fill-opacity:0.10196078;stroke:#ff6733;stroke-width:1.14417827;stroke-opacity:0.5098038" />
      <path
         inkscape:export-ydpi="55.226181"
         inkscape:export-xdpi="55.226181"
         inkscape:export-filename="/Users/daviddumon/path3858.png"
         style="fill:#87e52e;fill-opacity:0.10196078;stroke:#87e52e;stroke-width:1.14417827;stroke-opacity:0.5098038"
         d="m 407.22935,377.12946 c -11.76557,-1.46517 -22.51478,-7.47268 -31.67255,-14.76384 -8.25523,-6.82626 -15.98821,-16.09773 -16.30721,-27.31505 -0.34419,-9.12582 6.46312,-17.52305 15.18318,-19.7925 12.58314,-3.58639 25.84646,0.73473 36.8387,6.9649 9.82075,5.51612 18.07664,13.55655 24.14985,23.02232 6.0068,8.85243 9.92838,19.00849 11.95021,29.48947 -12.85988,4.27335 -26.87949,5.48213 -40.14218,2.3947 z"
         id="path4051"
         inkscape:connector-curvature="0"
         clip-path="none" />
      <path
         inkscape:export-ydpi="55.226181"
         inkscape:export-xdpi="55.226181"
         inkscape:export-filename="/Users/daviddumon/path3858.png"
         sodipodi:type="arc"
         style="fill:#ff6733;fill-opacity:0.5098038;stroke:#ff6733;stroke-opacity:0.5098038"
         id="path4053"
         sodipodi:cx="94.449265"
         sodipodi:cy="190.19699"
         sodipodi:rx="18.182745"
         sodipodi:ry="16.162441"
         d="M 95.365144,206.33892 A 18.182745,16.162441 0 1 1 94.636051,174.0354 l -0.186786,16.16159 z"
         sodipodi:start="1.5204042"
         sodipodi:end="4.7226619"
         transform="matrix(0.82854541,-0.55992188,0.55992188,0.82854541,150.93608,232.47408)" />
      <path
         inkscape:export-ydpi="55.226181"
         inkscape:export-xdpi="55.226181"
         inkscape:export-filename="/Users/daviddumon/path3858.png"
         transform="matrix(-0.01937658,0.99981226,-0.99981226,-0.01937658,549.48025,202.60172)"
         sodipodi:end="4.7226619"
         sodipodi:start="1.5204042"
         d="M 95.365144,206.33892 A 18.182745,16.162441 0 1 1 94.636051,174.0354 l -0.186786,16.16159 z"
         sodipodi:ry="16.162441"
         sodipodi:rx="18.182745"
         sodipodi:cy="190.19699"
         sodipodi:cx="94.449265"
         id="path4055"
         style="fill:#2873a3;fill-opacity:0.5098038;stroke:#2873a3;stroke-opacity:0.5098038"
         sodipodi:type="arc" />
      <path
         inkscape:export-ydpi="55.226181"
         inkscape:export-xdpi="55.226181"
         inkscape:transform-center-y="-8.5714286"
         inkscape:transform-center-x="10"
         sodipodi:type="arc"
         style="fill:#87e52e;fill-opacity:0.5098038;stroke:#87e52e;stroke-opacity:0.5098038"
         id="path4057"
         sodipodi:cx="94.449265"
         sodipodi:cy="190.19699"
         sodipodi:rx="18.182745"
         sodipodi:ry="16.162441"
         d="M 95.365144,206.33892 A 18.182745,16.162441 0 1 1 94.636051,174.0354 l -0.186786,16.16159 z"
         sodipodi:start="1.5204042"
         sodipodi:end="4.7226619"
         transform="matrix(-0.79542722,-0.60604912,0.60604912,-0.79542722,342.51909,544.45761)" />
      <path
         sodipodi:type="arc"
         style="fill:#ffffff;fill-opacity:1;stroke:#8c8c8c;stroke-opacity:1;stroke-width:2.46125027999999979;stroke-miterlimit:4;stroke-dasharray:none"
         id="path4059"
         sodipodi:cx="550.71429"
         sodipodi:cy="277.71933"
         sodipodi:rx="29.285715"
         sodipodi:ry="15.357142"
         d="m 580.00001,277.71933 a 29.285715,15.357142 0 1 1 -58.57143,0 29.285715,15.357142 0 1 1 58.57143,0 z"
         transform="matrix(0.60076058,0,0,1.0991248,26.652571,15.328266)" />
      <path
         clip-path="none"
         inkscape:connector-curvature="0"
         id="path4065"
         d="m 623.75405,250.97525 c 4.61391,10.92187 4.78587,23.23472 3.05043,34.81116 -1.7841,10.56237 -5.94694,21.89506 -15.50193,27.77999 -7.7311,4.86098 -18.40696,3.16429 -24.7324,-3.25278 -9.39747,-9.10412 -12.28693,-22.75105 -12.38757,-35.3857 -0.13328,-11.26308 2.702,-22.43311 7.86299,-32.42554 4.66302,-9.62826 11.49764,-18.10248 19.56353,-25.09393 10.13077,9.00031 18.18741,20.53726 22.14495,33.5668 z"
         style="fill:#2873a3;fill-opacity:0.10196078;stroke:#2873a3;stroke-width:1.14400005;stroke-miterlimit:4;stroke-opacity:0.5098038;stroke-dasharray:none"
         inkscape:export-filename="/Users/daviddumon/logo.png"
         inkscape:export-xdpi="55.226181"
         inkscape:export-ydpi="55.226181" />
      <path
         style="fill:#ff6733;fill-opacity:0.10196078;stroke:#ff6733;stroke-width:1.14417827;stroke-opacity:0.5098038"
         d="m 529.87687,338.47746 c 7.15166,-9.4567 17.72892,-15.76204 28.62213,-20.04732 10.03933,-3.73611 21.93515,-5.79733 31.80914,-0.46493 8.07528,4.26483 11.94384,14.35875 9.54921,23.04527 -3.18566,12.69051 -13.55952,22.01632 -24.45113,28.4208 -9.68747,5.74696 -20.77863,8.87655 -32.01283,9.40322 -10.66983,0.77583 -21.42603,-0.90601 -31.51374,-4.39555 2.72911,-13.27366 8.69208,-26.01939 17.99722,-35.96149 z"
         id="path4067"
         inkscape:connector-curvature="0"
         clip-path="none"
         inkscape:export-filename="/Users/daviddumon/logo.png"
         inkscape:export-xdpi="55.226181"
         inkscape:export-ydpi="55.226181" />
      <path
         clip-path="none"
         inkscape:connector-curvature="0"
         id="path4069"
         d="m 651.51506,376.41517 c -11.76557,-1.46517 -22.51478,-7.47268 -31.67255,-14.76384 -8.25523,-6.82626 -15.98821,-16.09773 -16.30721,-27.31505 -0.34419,-9.12582 6.46312,-17.52305 15.18318,-19.7925 12.58314,-3.58639 25.84646,0.73473 36.8387,6.9649 9.82075,5.51612 18.07664,13.55655 24.14985,23.02232 6.0068,8.85243 9.92838,19.00849 11.95021,29.48947 -12.85988,4.27335 -26.87949,5.48213 -40.14218,2.3947 z"
         style="fill:#87e52e;fill-opacity:0.10196078;stroke:#87e52e;stroke-width:1.14417827;stroke-opacity:0.5098038"
         inkscape:export-filename="/Users/daviddumon/logo.png"
         inkscape:export-xdpi="55.226181"
         inkscape:export-ydpi="55.226181" />
      <path
         transform="matrix(0.82854541,-0.55992188,0.55992188,0.82854541,395.22179,231.75979)"
         sodipodi:end="4.7226619"
         sodipodi:start="1.5204042"
         d="M 95.365144,206.33892 A 18.182745,16.162441 0 1 1 94.636051,174.0354 l -0.186786,16.16159 z"
         sodipodi:ry="16.162441"
         sodipodi:rx="18.182745"
         sodipodi:cy="190.19699"
         sodipodi:cx="94.449265"
         id="path4071"
         style="fill:#ff6733;fill-opacity:0.5098038;stroke:#ff6733;stroke-opacity:0.5098038"
         sodipodi:type="arc"
         inkscape:export-filename="/Users/daviddumon/logo.png"
         inkscape:export-xdpi="55.226181"
         inkscape:export-ydpi="55.226181" />
      <path
         sodipodi:type="arc"
         style="fill:#2873a3;fill-opacity:0.5098038;stroke:#2873a3;stroke-opacity:0.5098038"
         id="path4073"
         sodipodi:cx="94.449265"
         sodipodi:cy="190.19699"
         sodipodi:rx="18.182745"
         sodipodi:ry="16.162441"
         d="M 95.365144,206.33892 A 18.182745,16.162441 0 1 1 94.636051,174.0354 l -0.186786,16.16159 z"
         sodipodi:start="1.5204042"
         sodipodi:end="4.7226619"
         transform="matrix(-0.01937658,0.99981226,-0.99981226,-0.01937658,793.76596,201.88743)"
         inkscape:export-filename="/Users/daviddumon/logo.png"
         inkscape:export-xdpi="55.226181"
         inkscape:export-ydpi="55.226181" />
      <path
         transform="matrix(-0.79542722,-0.60604912,0.60604912,-0.79542722,586.8048,543.74332)"
         sodipodi:end="4.7226619"
         sodipodi:start="1.5204042"
         d="M 95.365144,206.33892 A 18.182745,16.162441 0 1 1 94.636051,174.0354 l -0.186786,16.16159 z"
         sodipodi:ry="16.162441"
         sodipodi:rx="18.182745"
         sodipodi:cy="190.19699"
         sodipodi:cx="94.449265"
         id="path4075"
         style="fill:#87e52e;fill-opacity:0.5098038;stroke:#87e52e;stroke-opacity:0.5098038"
         sodipodi:type="arc"
         inkscape:transform-center-x="10"
         inkscape:transform-center-y="-8.5714286"
         inkscape:export-xdpi="55.226181"
         inkscape:export-ydpi="55.226181"
         inkscape:export-filename="/Users/daviddumon/logo.png" />
      <path
         transform="matrix(0.60076058,0,0,1.0991248,270.93829,14.61398)"
         d="m 580.00001,277.71933 a 29.285715,15.357142 0 1 1 -58.57143,0 29.285715,15.357142 0 1 1 58.57143,0 z"
         sodipodi:ry="15.357142"
         sodipodi:rx="29.285715"
         sodipodi:cy="277.71933"
         sodipodi:cx="550.71429"
         id="path4077"
         style="fill:#ffffff;fill-opacity:0.50980395;stroke:#8c8c8c;stroke-width:2.46125031000000005;stroke-miterlimit:4;stroke-opacity:1;stroke-dasharray:none"
         sodipodi:type="arc"
         inkscape:export-filename="/Users/daviddumon/logo.png"
         inkscape:export-xdpi="55"
         inkscape:export-ydpi="55" />
      <text
         xml:space="preserve"
         style="font-size:32px;font-style:normal;font-variant:normal;font-weight:normal;font-stretch:normal;text-align:start;line-height:125%;letter-spacing:0px;word-spacing:0px;writing-mode:lr-tb;text-anchor:start;fill:#505050;fill-opacity:1;stroke:none;font-family:Sans;-inkscape-font-specification:Sans"
         x="590.71436"
         y="331.64789"
         id="text4061"
         sodipodi:linespacing="125%"
         inkscape:export-filename="/Users/daviddumon/logo.png"
         inkscape:export-xdpi="55"
         inkscape:export-ydpi="55"><tspan
           sodipodi:role="line"
           id="tspan4063"
           x="590.71436"
           y="331.64789">K</tspan></text>
      <g
         id="g4095"
         transform="translate(28.461034,0)">
        <path
           clip-path="none"
           inkscape:connector-curvature="0"
           id="path4079"
           d="m 307.32549,480.68955 c 4.61391,10.92187 4.78587,23.23471 3.05043,34.81115 -1.7841,10.56237 -5.94694,21.89506 -15.50193,27.77999 -7.7311,4.86098 -18.40696,3.16429 -24.7324,-3.25278 -9.39747,-9.10412 -12.28693,-22.75105 -12.38757,-35.3857 -0.13328,-11.26307 2.702,-22.4331 7.86299,-32.42553 4.66302,-9.62826 11.49764,-18.10248 19.56353,-25.09393 10.13077,9.00031 18.18741,20.53726 22.14495,33.5668 z"
           style="fill:#2873a3;fill-opacity:0.10196078;stroke:#2873a3;stroke-width:1.14417827;stroke-opacity:0.5098038"
           inkscape:export-filename="/Users/daviddumon/path3858.png"
           inkscape:export-xdpi="55.226181"
           inkscape:export-ydpi="55.226181" />
        <path
           style="fill:#ff6733;fill-opacity:0.10196078;stroke:#ff6733;stroke-width:1.14417827;stroke-opacity:0.5098038"
           d="m 213.44831,568.19175 c 7.15166,-9.4567 17.72892,-15.76204 28.62213,-20.04732 10.03933,-3.73611 21.93515,-5.79733 31.80914,-0.46493 8.07528,4.26483 11.94384,14.35875 9.54921,23.04527 -3.18566,12.69051 -13.55952,22.01632 -24.45113,28.4208 -9.68747,5.74696 -20.77863,8.87655 -32.01283,9.40322 -10.66983,0.77583 -21.42603,-0.90601 -31.51374,-4.39555 2.72911,-13.27366 8.69208,-26.01939 17.99722,-35.96149 z"
           id="path4081"
           inkscape:connector-curvature="0"
           clip-path="none"
           inkscape:export-filename="/Users/daviddumon/path3858.png"
           inkscape:export-xdpi="55.226181"
           inkscape:export-ydpi="55.226181" />
        <path
           clip-path="none"
           inkscape:connector-curvature="0"
           id="path4083"
           d="m 335.0865,606.12946 c -11.76557,-1.46517 -22.51478,-7.47268 -31.67255,-14.76384 -8.25523,-6.82626 -15.98821,-16.09773 -16.30721,-27.31505 -0.34419,-9.12582 6.46312,-17.52305 15.18318,-19.7925 12.58314,-3.58639 25.84646,0.73473 36.8387,6.9649 9.82075,5.51612 18.07664,13.55655 24.14985,23.02232 6.0068,8.85243 9.92838,19.00849 11.95021,29.48947 -12.85988,4.27335 -26.87949,5.48213 -40.14218,2.3947 z"
           style="fill:#87e52e;fill-opacity:0.10196078;stroke:#87e52e;stroke-width:1.14417827;stroke-opacity:0.5098038"
           inkscape:export-filename="/Users/daviddumon/path3858.png"
           inkscape:export-xdpi="55.226181"
           inkscape:export-ydpi="55.226181" />
        <path
           transform="matrix(0.82854541,-0.55992188,0.55992188,0.82854541,78.793227,461.47409)"
           sodipodi:end="4.7226619"
           sodipodi:start="1.5204042"
           d="m 95.365144,206.33892 c -10.029305,0.44962 -18.569717,-6.41288 -19.075543,-15.32781 -0.505826,-8.91494 7.214479,-16.50642 17.243784,-16.95604 0.367247,-0.0165 0.734972,-0.023 1.102666,-0.0197 l -0.186786,16.16159 z"
           sodipodi:ry="16.162441"
           sodipodi:rx="18.182745"
           sodipodi:cy="190.19699"
           sodipodi:cx="94.449265"
           id="path4085"
           style="fill:#ff6733;fill-opacity:0.5098038;stroke:#ff6733;stroke-opacity:0.5098038"
           sodipodi:type="arc"
           inkscape:export-filename="/Users/daviddumon/path3858.png"
           inkscape:export-xdpi="55.226181"
           inkscape:export-ydpi="55.226181" />
        <path
           sodipodi:type="arc"
           style="fill:#2873a3;fill-opacity:0.5098038;stroke:#2873a3;stroke-opacity:0.5098038"
           id="path4087"
           sodipodi:cx="94.449265"
           sodipodi:cy="190.19699"
           sodipodi:rx="18.182745"
           sodipodi:ry="16.162441"
           d="m 95.365144,206.33892 c -10.029305,0.44962 -18.569717,-6.41288 -19.075543,-15.32781 -0.505826,-8.91494 7.214479,-16.50642 17.243784,-16.95604 0.367247,-0.0165 0.734972,-0.023 1.102666,-0.0197 l -0.186786,16.16159 z"
           sodipodi:start="1.5204042"
           sodipodi:end="4.7226619"
           transform="matrix(-0.01937658,0.99981226,-0.99981226,-0.01937658,477.3374,431.60173)"
           inkscape:export-filename="/Users/daviddumon/path3858.png"
           inkscape:export-xdpi="55.226181"
           inkscape:export-ydpi="55.226181" />
        <path
           transform="matrix(-0.79542722,-0.60604912,0.60604912,-0.79542722,270.37624,773.45761)"
           sodipodi:end="4.7226619"
           sodipodi:start="1.5204042"
           d="m 95.365144,206.33892 c -10.029305,0.44962 -18.569717,-6.41288 -19.075543,-15.32781 -0.505826,-8.91494 7.214479,-16.50642 17.243784,-16.95604 0.367247,-0.0165 0.734972,-0.023 1.102666,-0.0197 l -0.186786,16.16159 z"
           sodipodi:ry="16.162441"
           sodipodi:rx="18.182745"
           sodipodi:cy="190.19699"
           sodipodi:cx="94.449265"
           id="path4089"
           style="fill:#87e52e;fill-opacity:0.5098038;stroke:#87e52e;stroke-opacity:0.5098038"
           sodipodi:type="arc"
           inkscape:transform-center-x="10"
           inkscape:transform-center-y="-8.5714286"
           inkscape:export-xdpi="55.226181"
           inkscape:export-ydpi="55.226181" />
      </g>
      <text
         xml:space="preserve"
         style="font-size:100px;font-style:normal;font-variant:normal;font-weight:bold;font-stretch:normal;text-align:start;line-height:125%;letter-spacing:0px;word-spacing:0px;writing-mode:lr-tb;text-anchor:start;fill:#000000;fill-opacity:1;stroke:none;font-family:Sans;-inkscape-font-specification:Sans Bold"
         x="103.57143"
         y="698.79077"
         id="text4091"
         sodipodi:linespacing="125%"><tspan
           sodipodi:role="line"
           id="tspan4093"
           x="103.57143"
           y="698.79077">Kikiyoo</tspan></text>
    </g>
  </g>
</svg>
