<?xml version="1.0" encoding="UTF-8" standalone="no"?>
<!-- Created with Inkscape (http://www.inkscape.org/) -->

<svg
   xmlns:dc="http://purl.org/dc/elements/1.1/"
   xmlns:cc="http://creativecommons.org/ns#"
   xmlns:rdf="http://www.w3.org/1999/02/22-rdf-syntax-ns#"
   xmlns:svg="http://www.w3.org/2000/svg"
   xmlns="http://www.w3.org/2000/svg"
   xmlns:sodipodi="http://sodipodi.sourceforge.net/DTD/sodipodi-0.dtd"
   xmlns:inkscape="http://www.inkscape.org/namespaces/inkscape"
   width="800px"
   height="600px"
   id="svg2995"
   version="1.1"
   inkscape:version="0.48.1 r9760"
   sodipodi:docname="kikiyoo_logo.svg"
   inkscape:export-filename="/Users/daviddumon/kikiyoo_favicon.png"
   inkscape:export-xdpi="15.717138"
   inkscape:export-ydpi="15.717138">
  <defs
     id="defs2997" />
  <sodipodi:namedview
     id="base"
     pagecolor="#ffffff"
     bordercolor="#666666"
     borderopacity="1.0"
     inkscape:pageopacity="0.0"
     inkscape:pageshadow="2"
     inkscape:zoom="0.6"
     inkscape:cx="602.55368"
     inkscape:cy="174.61947"
     inkscape:current-layer="layer1"
     inkscape:document-units="px"
     showgrid="false"
     inkscape:snap-global="true"
     inkscape:window-width="1920"
     inkscape:window-height="1088"
     inkscape:window-x="0"
     inkscape:window-y="0"
     inkscape:window-maximized="0" />
  <metadata
     id="metadata3000">
    <rdf:RDF>
      <cc:Work
         rdf:about="">
        <dc:format>image/svg+xml</dc:format>
        <dc:type
           rdf:resource="http://purl.org/dc/dcmitype/StillImage" />
        <dc:title></dc:title>
      </cc:Work>
    </rdf:RDF>
  </metadata>
  <g
     id="layer1"
     inkscape:label="Layer 1"
     inkscape:groupmode="layer">
    <path
       inkscape:connector-curvature="0"
       id="path5386"
       d="m 327.43127,228.37195 c -19.26626,-10.13125 -43.533,-12.73796 -62.94632,-1.51355 -17.45306,7.89281 -24.21322,30.6421 -15.60357,47.38272 10.4687,23.38837 34.35758,39.64856 59.57651,42.78831 34.51633,4.35861 70.25263,18.81021 90.18821,48.72159 2.6863,6.64374 8.40874,10.05309 8.11092,0.53861 2.69962,-20.30042 -6.32334,-39.81957 -13.55133,-58.28144 -12.53677,-27.91388 -30.85687,-53.88864 -55.03716,-72.85414 -3.45569,-2.44867 -7.05892,-4.68588 -10.73726,-6.7821 z"
       style="fill:#2873a3;fill-opacity:0.10196079;fill-rule:evenodd;stroke:#2873a3;stroke-opacity:0.50980382999999996" />
    <path
       inkscape:connector-curvature="0"
       id="path5388"
       d="m 204.3893,316.2148 c 18.40705,-11.61945 32.7979,-31.3317 32.78394,-53.75634 1.89115,-19.06119 -14.43023,-36.2903 -33.23286,-37.20445 -25.48927,-2.62801 -51.51545,9.93027 -66.84402,30.20063 -21.03283,27.7127 -51.41643,51.43545 -87.28824,53.74448 -7.0968,-0.99547 -12.9106,2.25563 -4.52191,6.75495 16.23087,12.48815 37.64643,14.43362 57.24887,17.40493 30.44252,3.09978 62.09737,0.22148 90.61212,-11.23651 3.84845,-1.76838 7.58755,-3.77026 11.2421,-5.90769 z"
       style="fill:#ff6833;fill-opacity:0.10196079000000000;fill-rule:evenodd;stroke:#ff6733;stroke-opacity:0.50980383" />
    <path
       style="fill:#87e52e;fill-opacity:0.10196078;fill-rule:evenodd;stroke:#87e52e;stroke-opacity:0.5098038"
       d="m 191.26142,163.29367 c 0.85921,21.7507 10.7351,44.06967 30.16239,55.2699 15.5619,11.16838 38.64344,5.6482 48.83643,-10.17828 15.02056,-20.76035 17.15786,-49.57882 7.2675,-72.98893 -13.48349,-32.07132 -18.8362,-70.24566 -2.89997,-102.46608 4.4105,-5.64827 4.50187,-12.30872 -3.58901,-7.29356 -18.93049,7.81227 -31.32309,25.38595 -43.69754,40.87651 -17.90575,24.8141 -31.2405,53.66716 -35.57496,84.09065 -0.39276,4.21705 -0.52863,8.45614 -0.50484,12.68979 z"
       id="path3023"
       inkscape:connector-curvature="0" />
    <path
       sodipodi:type="arc"
       style="fill:#ff6733;fill-opacity:0.5098038;stroke:#ff6733;stroke-opacity:0.5098038"
       id="path5380"
       sodipodi:cx="90.833336"
       sodipodi:cy="164.58333"
       sodipodi:rx="10.833333"
       sodipodi:ry="10.416667"
       d="m 101.66667,164.58333 a 10.833333,10.416667 0 1 1 -21.666667,0 10.833333,10.416667 0 1 1 21.666667,0 z"
       transform="matrix(1.2,0,0,1.2,132.16666,-2.0833329)" />
    <path
       transform="matrix(1.2,0,0,1.2,170.16666,59.583333)"
       d="m 101.66667,164.58333 a 10.833333,10.416667 0 1 1 -21.666667,0 10.833333,10.416667 0 1 1 21.666667,0 z"
       sodipodi:ry="10.416667"
       sodipodi:rx="10.833333"
       sodipodi:cy="164.58333"
       sodipodi:cx="90.833336"
       id="path5382"
       style="fill:#87e533;fill-opacity:0.5098038;stroke:#87e52e;stroke-opacity:0.5098038"
       sodipodi:type="arc" />
    <path
       sodipodi:type="arc"
       style="fill:#2873a3;fill-opacity:0.5098038;stroke:#2873a3;stroke-opacity:0.5098038"
       id="path5384"
       sodipodi:cx="90.833336"
       sodipodi:cy="164.58333"
       sodipodi:rx="10.833333"
       sodipodi:ry="10.416667"
       d="m 101.66667,164.58333 a 10.833333,10.416667 0 1 1 -21.666667,0 10.833333,10.416667 0 1 1 21.666667,0 z"
       transform="matrix(1.2,0,0,1.2,96.833328,59.583333)" />
  </g>
</svg>
